<?xml version="1.0" encoding="UTF-8" standalone="no"?>
<!DOCTYPE svg PUBLIC "-//W3C//DTD SVG 1.1//EN" "http://www.w3.org/Graphics/SVG/1.1/DTD/svg11.dtd">
<svg width="100%" height="100%" viewBox="0 0 1048 1048" version="1.1" xmlns="http://www.w3.org/2000/svg" xmlns:xlink="http://www.w3.org/1999/xlink" xml:space="preserve" xmlns:serif="http://www.serif.com/" style="fill-rule:evenodd;clip-rule:evenodd;stroke-linejoin:round;stroke-miterlimit:2;">
    <g transform="matrix(1.0276,0,0,1.02511,-41.87,-337.053)">
        <rect x="31.71" y="320.573" width="1049.41" height="1048.07" style="fill:rgb(41,42,48);"/>
    </g>
    <g transform="matrix(3.86668,0,0,2.92507,-431.359,386.962)">
        <rect x="111.558" y="-132.291" width="271.045" height="89.582" style="fill:rgb(31,31,32);"/>
    </g>
    <g transform="matrix(0.582197,0,0,0.582197,97.01,92.8104)">
        <g id="Button1" transform="matrix(5.39327,0,0,5.39327,-1521.48,-1908.46)">
            <circle cx="315.588" cy="377.116" r="14.068" style="fill:rgb(227,46,42);"/>
        </g>
        <g id="Button2" transform="matrix(5.39327,0,0,5.39327,-1302.01,-1910.1)">
            <circle cx="315.588" cy="377.116" r="14.068" style="fill:rgb(253,202,28);"/>
        </g>
        <g id="Button3" transform="matrix(5.39327,0,0,5.39327,-1082.53,-1908.46)">
            <circle cx="315.588" cy="377.116" r="14.068" style="fill:rgb(41,183,6);"/>
        </g>
    </g>
    <g transform="matrix(2.59519,0,0,2.59519,-677.513,-793.005)">
        <path d="M469.345,443.967L469.345,450.711C469.345,452.572 467.835,454.082 465.974,454.082L325.305,454.082C323.444,454.082 321.933,452.572 321.933,450.711L321.933,443.967C321.933,442.106 323.444,440.595 325.305,440.595L465.974,440.595C467.835,440.595 469.345,442.106 469.345,443.967Z" style="fill:rgb(255,122,178);"/>
    </g>
    <g transform="matrix(2.0477,0,0,2.59519,-75.914,-793.005)">
        <path d="M469.345,443.967L469.345,450.711C469.345,452.572 467.431,454.082 465.072,454.082L326.206,454.082C323.848,454.082 321.933,452.572 321.933,450.711L321.933,443.967C321.933,442.106 323.848,440.595 326.206,440.595L465.072,440.595C467.431,440.595 469.345,442.106 469.345,443.967Z" style="fill:rgb(107,223,254);"/>
    </g>
    <g transform="matrix(1.2532,0,0,2.59519,-244.877,-703.989)">
        <path d="M469.345,443.967L469.345,450.711C469.345,452.572 466.217,454.082 462.363,454.082L328.915,454.082C325.062,454.082 321.933,452.572 321.933,450.711L321.933,443.967C321.933,442.106 325.062,440.595 328.915,440.595L462.363,440.595C466.217,440.595 469.345,442.106 469.345,443.967Z" style="fill:rgb(255,122,178);"/>
    </g>
    <g transform="matrix(0.191253,0,0,2.59519,326.56,-703.989)">
        <path d="M469.345,443.311L469.345,451.367C469.345,452.865 452.832,454.082 432.492,454.082L358.786,454.082C338.446,454.082 321.933,452.865 321.933,451.367L321.933,443.311C321.933,441.812 338.446,440.595 358.786,440.595L432.492,440.595C452.832,440.595 469.345,441.812 469.345,443.311Z" style="fill:rgb(107,223,254);"/>
    </g>
    <g transform="matrix(1.83361,0,0,2.59519,-431.73,-347.926)">
        <path d="M469.345,443.967L469.345,450.711C469.345,452.572 467.207,454.082 464.573,454.082L326.705,454.082C324.071,454.082 321.933,452.572 321.933,450.711L321.933,443.967C321.933,442.106 324.071,440.595 326.705,440.595L464.573,440.595C467.207,440.595 469.345,442.106 469.345,443.967Z" style="fill:rgb(255,122,178);"/>
    </g>
    <g transform="matrix(0.191253,0,0,2.59519,414.409,-347.926)">
        <path d="M469.345,443.311L469.345,451.367C469.345,452.865 452.832,454.082 432.492,454.082L358.786,454.082C338.446,454.082 321.933,452.865 321.933,451.367L321.933,443.311C321.933,441.812 338.446,440.595 358.786,440.595L432.492,440.595C452.832,440.595 469.345,441.812 469.345,443.311Z" style="fill:rgb(107,223,254);"/>
    </g>
    <g transform="matrix(2.08037,0,0,2.59519,-511.745,-614.973)">
        <path d="M469.345,443.967L469.345,450.711C469.345,452.572 467.461,454.082 465.139,454.082L326.139,454.082C323.818,454.082 321.933,452.572 321.933,450.711L321.933,443.967C321.933,442.106 323.818,440.595 326.139,440.595L465.139,440.595C467.461,440.595 469.345,442.106 469.345,443.967Z" style="fill:rgb(255,122,178);"/>
    </g>
    <g transform="matrix(1.87684,0,0,2.59519,-95.9715,-614.973)">
        <path d="M469.345,443.967L469.345,450.711C469.345,452.572 467.256,454.082 464.683,454.082L326.595,454.082C324.022,454.082 321.933,452.572 321.933,450.711L321.933,443.967C321.933,442.106 324.022,440.595 326.595,440.595L464.683,440.595C467.256,440.595 469.345,442.106 469.345,443.967Z" style="fill:rgb(107,223,254);"/>
    </g>
    <g transform="matrix(0.413551,0,0,2.59519,695.937,-614.973)">
        <path d="M469.345,443.967L469.345,450.711C469.345,452.572 459.864,454.082 448.186,454.082L343.092,454.082C331.414,454.082 321.933,452.572 321.933,450.711L321.933,443.967C321.933,442.106 331.414,440.595 343.092,440.595L448.186,440.595C459.864,440.595 469.345,442.106 469.345,443.967Z" style="fill:rgb(162,176,190);"/>
    </g>
    <g transform="matrix(1.53651,0,0,2.59519,-336.661,-436.941)">
        <path d="M469.345,443.967L469.345,450.711C469.345,452.572 466.794,454.082 463.65,454.082L327.628,454.082C324.485,454.082 321.933,452.572 321.933,450.711L321.933,443.967C321.933,442.106 324.485,440.595 327.628,440.595L463.65,440.595C466.794,440.595 469.345,442.106 469.345,443.967Z" style="fill:rgb(255,122,178);"/>
    </g>
    <g transform="matrix(2.04788,0,0,2.59519,-230.188,-436.941)">
        <path d="M469.345,443.967L469.345,450.711C469.345,452.572 467.431,454.082 465.072,454.082L326.206,454.082C323.847,454.082 321.933,452.572 321.933,450.711L321.933,443.967C321.933,442.106 323.847,440.595 326.206,440.595L465.072,440.595C467.431,440.595 469.345,442.106 469.345,443.967Z" style="fill:rgb(107,223,254);"/>
    </g>
    <g transform="matrix(2.59662,0,0,2.59519,-677.944,-525.957)">
        <path d="M469.345,443.967L469.345,450.711C469.345,452.572 467.835,454.082 465.975,454.082L325.303,454.082C323.443,454.082 321.933,452.572 321.933,450.711L321.933,443.967C321.933,442.106 323.443,440.595 325.303,440.595L465.975,440.595C467.835,440.595 469.345,442.106 469.345,443.967Z" style="fill:rgb(255,122,178);"/>
    </g>
    <g transform="matrix(0.612993,0,0,2.59519,385.241,-525.957)">
        <path d="M469.345,443.967L469.345,450.711C469.345,452.572 462.949,454.082 455.07,454.082L336.208,454.082C328.329,454.082 321.933,452.572 321.933,450.711L321.933,443.967C321.933,442.106 328.329,440.595 336.208,440.595L455.07,440.595C462.949,440.595 469.345,442.106 469.345,443.967Z" style="fill:rgb(107,223,254);"/>
    </g>
</svg>
